<svg xmlns="http://www.w3.org/2000/svg" width="760" height="430" viewBox="0 0 760 430">
<rect width="100%" height="100%" fill="#f8f9fb"/>
<line x1="260" y1="280" x2="350" y2="355" stroke="#c8ced8" stroke-width="2.42"/>
<line x1="260" y1="280" x2="160" y2="210" stroke="#c8ced8" stroke-width="2.38"/>
<line x1="555" y1="315" x2="520" y2="225" stroke="#c8ced8" stroke-width="2.52"/>
<line x1="555" y1="315" x2="350" y2="355" stroke="#c8ced8" stroke-width="1.96"/>
<line x1="365" y1="155" x2="380" y2="115" stroke="#c8ced8" stroke-width="2.7800000000000002"/>
<line x1="365" y1="155" x2="520" y2="225" stroke="#c8ced8" stroke-width="2.1399999999999997"/>
<line x1="405" y1="235" x2="520" y2="225" stroke="#c8ced8" stroke-width="2.42"/>
<line x1="405" y1="235" x2="380" y2="115" stroke="#c8ced8" stroke-width="2.38"/>
<circle cx="260" cy="280" r="22" fill="#537bd7" opacity="0.96"/>
<text x="260" y="319" text-anchor="middle" font-family="Arial" font-size="14" font-weight="700" fill="#20242a">Status quo</text>
<circle cx="555" cy="315" r="22" fill="#3c9890" opacity="0.96"/>
<text x="555" y="354" text-anchor="middle" font-family="Arial" font-size="14" font-weight="700" fill="#20242a">Restrict first</text>
<circle cx="365" cy="155" r="22" fill="#7961c5" opacity="0.96"/>
<text x="365" y="194" text-anchor="middle" font-family="Arial" font-size="14" font-weight="700" fill="#20242a">Transit first</text>
<circle cx="405" cy="235" r="22" fill="#299764" opacity="0.96"/>
<text x="405" y="274" text-anchor="middle" font-family="Arial" font-size="14" font-weight="700" fill="#20242a">Invest &amp; Manage</text>
<circle cx="380" cy="115" r="12" fill="#9ba3af" opacity="0.65"/>
<text x="380" y="144" text-anchor="middle" font-family="Arial" font-size="12" font-weight="500" fill="#20242a">Fairness</text>
<circle cx="520" cy="225" r="12" fill="#9ba3af" opacity="0.65"/>
<text x="520" y="254" text-anchor="middle" font-family="Arial" font-size="12" font-weight="500" fill="#20242a">Effectiveness</text>
<circle cx="160" cy="210" r="12" fill="#9ba3af" opacity="0.65"/>
<text x="160" y="239" text-anchor="middle" font-family="Arial" font-size="12" font-weight="500" fill="#20242a">Osobní dopad</text>
<circle cx="350" cy="355" r="12" fill="#9ba3af" opacity="0.65"/>
<text x="350" y="384" text-anchor="middle" font-family="Arial" font-size="12" font-weight="500" fill="#20242a">Srozumitelnost</text>
</svg>