<svg xmlns="http://www.w3.org/2000/svg" width="760" height="430" viewBox="0 0 760 430">
<rect width="100%" height="100%" fill="#f8f9fb"/>
<line x1="245" y1="290" x2="335" y2="355" stroke="#c8ced8" stroke-width="2.44"/>
<line x1="245" y1="290" x2="170" y2="205" stroke="#c8ced8" stroke-width="2.44"/>
<line x1="355" y1="185" x2="380" y2="115" stroke="#c8ced8" stroke-width="2.62"/>
<line x1="355" y1="185" x2="500" y2="245" stroke="#c8ced8" stroke-width="2.2199999999999998"/>
<line x1="420" y1="235" x2="500" y2="245" stroke="#c8ced8" stroke-width="2.6"/>
<line x1="420" y1="235" x2="380" y2="115" stroke="#c8ced8" stroke-width="2.3600000000000003"/>
<line x1="555" y1="135" x2="500" y2="245" stroke="#c8ced8" stroke-width="2.38"/>
<line x1="555" y1="135" x2="380" y2="115" stroke="#c8ced8" stroke-width="2.12"/>
<circle cx="245" cy="290" r="22" fill="#537bd7" opacity="0.96"/>
<text x="245" y="329" text-anchor="middle" font-family="Arial" font-size="14" font-weight="700" fill="#20242a">Pay as you go</text>
<circle cx="355" cy="185" r="22" fill="#3c9890" opacity="0.96"/>
<text x="355" y="224" text-anchor="middle" font-family="Arial" font-size="14" font-weight="700" fill="#20242a">Commuter Pass</text>
<circle cx="420" cy="235" r="22" fill="#7961c5" opacity="0.96"/>
<text x="420" y="274" text-anchor="middle" font-family="Arial" font-size="14" font-weight="700" fill="#20242a">FlexPass</text>
<circle cx="555" cy="135" r="22" fill="#299764" opacity="0.96"/>
<text x="555" y="174" text-anchor="middle" font-family="Arial" font-size="14" font-weight="700" fill="#20242a">Membership Plus</text>
<circle cx="380" cy="115" r="12" fill="#9ba3af" opacity="0.65"/>
<text x="380" y="144" text-anchor="middle" font-family="Arial" font-size="12" font-weight="500" fill="#20242a">Důvěra</text>
<circle cx="500" cy="245" r="12" fill="#9ba3af" opacity="0.65"/>
<text x="500" y="274" text-anchor="middle" font-family="Arial" font-size="12" font-weight="500" fill="#20242a">Relevance</text>
<circle cx="170" cy="205" r="12" fill="#9ba3af" opacity="0.65"/>
<text x="170" y="234" text-anchor="middle" font-family="Arial" font-size="12" font-weight="500" fill="#20242a">Cena / náklad</text>
<circle cx="335" cy="355" r="12" fill="#9ba3af" opacity="0.65"/>
<text x="335" y="384" text-anchor="middle" font-family="Arial" font-size="12" font-weight="500" fill="#20242a">Jednoduchost</text>
</svg>