<svg xmlns="http://www.w3.org/2000/svg" width="760" height="430" viewBox="0 0 760 430">
<rect width="100%" height="100%" fill="#f8f9fb"/>
<line x1="255" y1="245" x2="170" y2="205" stroke="#c8ced8" stroke-width="2.54"/>
<line x1="255" y1="245" x2="335" y2="355" stroke="#c8ced8" stroke-width="2.3200000000000003"/>
<line x1="405" y1="210" x2="380" y2="115" stroke="#c8ced8" stroke-width="2.5"/>
<line x1="405" y1="210" x2="500" y2="245" stroke="#c8ced8" stroke-width="2.5"/>
<line x1="570" y1="125" x2="500" y2="245" stroke="#c8ced8" stroke-width="2.3"/>
<line x1="570" y1="125" x2="380" y2="115" stroke="#c8ced8" stroke-width="2.04"/>
<line x1="365" y1="315" x2="335" y2="355" stroke="#c8ced8" stroke-width="2.76"/>
<line x1="365" y1="315" x2="500" y2="245" stroke="#c8ced8" stroke-width="2.24"/>
<circle cx="255" cy="245" r="22" fill="#537bd7" opacity="0.96"/>
<text x="255" y="284" text-anchor="middle" font-family="Arial" font-size="14" font-weight="700" fill="#20242a">Current</text>
<circle cx="405" cy="210" r="22" fill="#3c9890" opacity="0.96"/>
<text x="405" y="249" text-anchor="middle" font-family="Arial" font-size="14" font-weight="700" fill="#20242a">Clear &amp; Human</text>
<circle cx="570" cy="125" r="22" fill="#7961c5" opacity="0.96"/>
<text x="570" y="164" text-anchor="middle" font-family="Arial" font-size="14" font-weight="700" fill="#20242a">Neo Future</text>
<circle cx="365" cy="315" r="22" fill="#299764" opacity="0.96"/>
<text x="365" y="354" text-anchor="middle" font-family="Arial" font-size="14" font-weight="700" fill="#20242a">Trusted Expert</text>
<circle cx="380" cy="115" r="12" fill="#9ba3af" opacity="0.65"/>
<text x="380" y="144" text-anchor="middle" font-family="Arial" font-size="12" font-weight="500" fill="#20242a">Důvěra</text>
<circle cx="500" cy="245" r="12" fill="#9ba3af" opacity="0.65"/>
<text x="500" y="274" text-anchor="middle" font-family="Arial" font-size="12" font-weight="500" fill="#20242a">Relevance</text>
<circle cx="170" cy="205" r="12" fill="#9ba3af" opacity="0.65"/>
<text x="170" y="234" text-anchor="middle" font-family="Arial" font-size="12" font-weight="500" fill="#20242a">Cena / náklad</text>
<circle cx="335" cy="355" r="12" fill="#9ba3af" opacity="0.65"/>
<text x="335" y="384" text-anchor="middle" font-family="Arial" font-size="12" font-weight="500" fill="#20242a">Jednoduchost</text>
</svg>