<svg xmlns="http://www.w3.org/2000/svg" width="760" height="430" viewBox="0 0 760 430">
<rect width="100%" height="100%" fill="#f8f9fb"/>
<line x1="390" y1="185" x2="380" y2="115" stroke="#c8ced8" stroke-width="2.6399999999999997"/>
<line x1="390" y1="185" x2="520" y2="225" stroke="#c8ced8" stroke-width="2.3200000000000003"/>
<line x1="270" y1="265" x2="350" y2="355" stroke="#c8ced8" stroke-width="2.4"/>
<line x1="270" y1="265" x2="160" y2="210" stroke="#c8ced8" stroke-width="2.38"/>
<line x1="565" y1="300" x2="520" y2="225" stroke="#c8ced8" stroke-width="2.56"/>
<line x1="565" y1="300" x2="350" y2="355" stroke="#c8ced8" stroke-width="1.9"/>
<line x1="420" y1="320" x2="350" y2="355" stroke="#c8ced8" stroke-width="2.6"/>
<line x1="420" y1="320" x2="520" y2="225" stroke="#c8ced8" stroke-width="2.3200000000000003"/>
<circle cx="390" cy="185" r="22" fill="#537bd7" opacity="0.96"/>
<text x="390" y="224" text-anchor="middle" font-family="Arial" font-size="14" font-weight="700" fill="#20242a">Product</text>
<circle cx="270" cy="265" r="22" fill="#3c9890" opacity="0.96"/>
<text x="270" y="304" text-anchor="middle" font-family="Arial" font-size="14" font-weight="700" fill="#20242a">Sales</text>
<circle cx="565" cy="300" r="22" fill="#7961c5" opacity="0.96"/>
<text x="565" y="339" text-anchor="middle" font-family="Arial" font-size="14" font-weight="700" fill="#20242a">Operations</text>
<circle cx="420" cy="320" r="22" fill="#299764" opacity="0.96"/>
<text x="420" y="359" text-anchor="middle" font-family="Arial" font-size="14" font-weight="700" fill="#20242a">Leadership</text>
<circle cx="380" cy="115" r="12" fill="#9ba3af" opacity="0.65"/>
<text x="380" y="144" text-anchor="middle" font-family="Arial" font-size="12" font-weight="500" fill="#20242a">Důvěra</text>
<circle cx="520" cy="225" r="12" fill="#9ba3af" opacity="0.65"/>
<text x="520" y="254" text-anchor="middle" font-family="Arial" font-size="12" font-weight="500" fill="#20242a">Spolupráce</text>
<circle cx="160" cy="210" r="12" fill="#9ba3af" opacity="0.65"/>
<text x="160" y="239" text-anchor="middle" font-family="Arial" font-size="12" font-weight="500" fill="#20242a">Decision speed</text>
<circle cx="350" cy="355" r="12" fill="#9ba3af" opacity="0.65"/>
<text x="350" y="384" text-anchor="middle" font-family="Arial" font-size="12" font-weight="500" fill="#20242a">Psych safety</text>
</svg>