<svg xmlns="http://www.w3.org/2000/svg" viewBox="0 0 512 8" width="512" height="8"><circle cx="4" cy="4" r="0.7" fill="#151a20" fill-opacity="0.30"></circle><circle cx="12" cy="4" r="0.7317460317460317" fill="#151a20" fill-opacity="0.32"></circle><circle cx="20" cy="4" r="0.7634920634920634" fill="#151a20" fill-opacity="0.34"></circle><circle cx="28" cy="4" r="0.7952380952380952" fill="#151a20" fill-opacity="0.36"></circle><circle cx="36" cy="4" r="0.8269841269841269" fill="#151a20" fill-opacity="0.38"></circle><circle cx="44" cy="4" r="0.8587301587301587" fill="#151a20" fill-opacity="0.40"></circle><circle cx="52" cy="4" r="0.8904761904761904" fill="#151a20" fill-opacity="0.41"></circle><circle cx="60" cy="4" r="0.9222222222222222" fill="#151a20" fill-opacity="0.43"></circle><circle cx="68" cy="4" r="0.9539682539682539" fill="#151a20" fill-opacity="0.45"></circle><circle cx="76" cy="4" r="0.9857142857142857" fill="#151a20" fill-opacity="0.47"></circle><circle cx="84" cy="4" r="1.0174603174603174" fill="#151a20" fill-opacity="0.49"></circle><circle cx="92" cy="4" r="1.049206349206349" fill="#151a20" fill-opacity="0.51"></circle><circle cx="100" cy="4" r="1.0809523809523809" fill="#151a20" fill-opacity="0.53"></circle><circle cx="108" cy="4" r="1.1126984126984127" fill="#151a20" fill-opacity="0.55"></circle><circle cx="116" cy="4" r="1.1444444444444444" fill="#151a20" fill-opacity="0.57"></circle><circle cx="124" cy="4" r="1.176190476190476" fill="#151a20" fill-opacity="0.59"></circle><circle cx="132" cy="4" r="1.2079365079365079" fill="#151a20" fill-opacity="0.60"></circle><circle cx="140" cy="4" r="1.2396825396825397" fill="#151a20" fill-opacity="0.62"></circle><circle cx="148" cy="4" r="1.2714285714285714" fill="#151a20" fill-opacity="0.64"></circle><circle cx="156" cy="4" r="1.3031746031746032" fill="#151a20" fill-opacity="0.66"></circle><circle cx="164" cy="4" r="1.3349206349206348" fill="#151a20" fill-opacity="0.68"></circle><circle cx="172" cy="4" r="1.3666666666666667" fill="#151a20" fill-opacity="0.70"></circle><circle cx="180" cy="4" r="1.3984126984126983" fill="#151a20" fill-opacity="0.72"></circle><circle cx="188" cy="4" r="1.4301587301587302" fill="#151a20" fill-opacity="0.74"></circle><circle cx="196" cy="4" r="1.4619047619047618" fill="#151a20" fill-opacity="0.76"></circle><circle cx="204" cy="4" r="1.4936507936507937" fill="#151a20" fill-opacity="0.78"></circle><circle cx="212" cy="4" r="1.5253968253968253" fill="#151a20" fill-opacity="0.80"></circle><circle cx="220" cy="4" r="1.5571428571428572" fill="#151a20" fill-opacity="0.81"></circle><circle cx="228" cy="4" r="1.5888888888888888" fill="#151a20" fill-opacity="0.83"></circle><circle cx="236" cy="4" r="1.6206349206349207" fill="#151a20" fill-opacity="0.85"></circle><circle cx="244" cy="4" r="1.6523809523809523" fill="#151a20" fill-opacity="0.87"></circle><circle cx="252" cy="4" r="1.6841269841269841" fill="#151a20" fill-opacity="0.89"></circle><circle cx="260" cy="4" r="1.6841269841269841" fill="#151a20" fill-opacity="0.89"></circle><circle cx="268" cy="4" r="1.6523809523809523" fill="#151a20" fill-opacity="0.87"></circle><circle cx="276" cy="4" r="1.6206349206349207" fill="#151a20" fill-opacity="0.85"></circle><circle cx="284" cy="4" r="1.5888888888888888" fill="#151a20" fill-opacity="0.83"></circle><circle cx="292" cy="4" r="1.5571428571428572" fill="#151a20" fill-opacity="0.81"></circle><circle cx="300" cy="4" r="1.5253968253968253" fill="#151a20" fill-opacity="0.80"></circle><circle cx="308" cy="4" r="1.4936507936507937" fill="#151a20" fill-opacity="0.78"></circle><circle cx="316" cy="4" r="1.4619047619047618" fill="#151a20" fill-opacity="0.76"></circle><circle cx="324" cy="4" r="1.4301587301587302" fill="#151a20" fill-opacity="0.74"></circle><circle cx="332" cy="4" r="1.3984126984126983" fill="#151a20" fill-opacity="0.72"></circle><circle cx="340" cy="4" r="1.3666666666666667" fill="#151a20" fill-opacity="0.70"></circle><circle cx="348" cy="4" r="1.3349206349206348" fill="#151a20" fill-opacity="0.68"></circle><circle cx="356" cy="4" r="1.3031746031746032" fill="#151a20" fill-opacity="0.66"></circle><circle cx="364" cy="4" r="1.2714285714285714" fill="#151a20" fill-opacity="0.64"></circle><circle cx="372" cy="4" r="1.2396825396825397" fill="#151a20" fill-opacity="0.62"></circle><circle cx="380" cy="4" r="1.2079365079365079" fill="#151a20" fill-opacity="0.60"></circle><circle cx="388" cy="4" r="1.176190476190476" fill="#151a20" fill-opacity="0.59"></circle><circle cx="396" cy="4" r="1.1444444444444444" fill="#151a20" fill-opacity="0.57"></circle><circle cx="404" cy="4" r="1.1126984126984127" fill="#151a20" fill-opacity="0.55"></circle><circle cx="412" cy="4" r="1.0809523809523809" fill="#151a20" fill-opacity="0.53"></circle><circle cx="420" cy="4" r="1.049206349206349" fill="#151a20" fill-opacity="0.51"></circle><circle cx="428" cy="4" r="1.0174603174603174" fill="#151a20" fill-opacity="0.49"></circle><circle cx="436" cy="4" r="0.9857142857142857" fill="#151a20" fill-opacity="0.47"></circle><circle cx="444" cy="4" r="0.9539682539682539" fill="#151a20" fill-opacity="0.45"></circle><circle cx="452" cy="4" r="0.9222222222222222" fill="#151a20" fill-opacity="0.43"></circle><circle cx="460" cy="4" r="0.8904761904761904" fill="#151a20" fill-opacity="0.41"></circle><circle cx="468" cy="4" r="0.8587301587301587" fill="#151a20" fill-opacity="0.40"></circle><circle cx="476" cy="4" r="0.8269841269841269" fill="#151a20" fill-opacity="0.38"></circle><circle cx="484" cy="4" r="0.7952380952380952" fill="#151a20" fill-opacity="0.36"></circle><circle cx="492" cy="4" r="0.7634920634920634" fill="#151a20" fill-opacity="0.34"></circle><circle cx="500" cy="4" r="0.7317460317460317" fill="#151a20" fill-opacity="0.32"></circle><circle cx="508" cy="4" r="0.7" fill="#151a20" fill-opacity="0.30"></circle></svg>